<?xml version="1.0" encoding="UTF-8" standalone="no"?>
<!DOCTYPE svg PUBLIC "-//W3C//DTD SVG 1.1//EN"
 "http://www.w3.org/Graphics/SVG/1.1/DTD/svg11.dtd">
<!-- Generated by graphviz version 2.40.1 (20161225.0304)
 -->
<!-- Title: state transitions Pages: 1 -->
<svg width="243pt" height="188pt"
 viewBox="0.00 0.00 243.00 188.00" xmlns="http://www.w3.org/2000/svg" xmlns:xlink="http://www.w3.org/1999/xlink">
<g id="graph0" class="graph" transform="scale(1 1) rotate(0) translate(4 184)">
<title>state transitions</title>
<polygon fill="#ffffff" stroke="transparent" points="-4,4 -4,-184 239,-184 239,4 -4,4"/>
<g id="clust1" class="cluster state regular">
<title>cluster_state</title>
<path fill="none" stroke="#000000" stroke-width="2" d="M20,-8C20,-8 215,-8 215,-8 221,-8 227,-14 227,-20 227,-20 227,-160 227,-160 227,-166 221,-172 215,-172 215,-172 20,-172 20,-172 14,-172 8,-166 8,-160 8,-160 8,-20 8,-20 8,-14 14,-8 20,-8"/>
<text text-anchor="start" x="104.4944" y="-153.2" font-family="Helvetica,sans-Serif" font-size="12.00" fill="#000000">state</text>
</g>
<!-- state -->
<!-- idle -->
<g id="node2" class="node state regular">
<title>idle</title>
<polygon fill="#ffffff" fill-opacity="0.003922" stroke="transparent" stroke-width="2" points="80,-134 24,-134 24,-98 80,-98 80,-134"/>
<text text-anchor="start" x="42.6664" y="-112.2" font-family="Helvetica,sans-Serif" font-size="12.00" fill="#000000">idle</text>
<path fill="none" stroke="#000000" stroke-width="2" d="M36.3333,-99C36.3333,-99 67.6667,-99 67.6667,-99 73.3333,-99 79,-104.6667 79,-110.3333 79,-110.3333 79,-121.6667 79,-121.6667 79,-127.3333 73.3333,-133 67.6667,-133 67.6667,-133 36.3333,-133 36.3333,-133 30.6667,-133 25,-127.3333 25,-121.6667 25,-121.6667 25,-110.3333 25,-110.3333 25,-104.6667 30.6667,-99 36.3333,-99"/>
</g>
<!-- idle&#45;&gt;idle -->
<g id="edge2" class="edge transition">
<title>idle&#45;&gt;idle</title>
<path fill="none" stroke="#000000" d="M80.0183,-120.8247C91.888,-121.1883 102,-119.5801 102,-116 102,-113.5387 97.2205,-112.0094 90.3762,-111.4121"/>
<polygon fill="#000000" stroke="#000000" points="90.0957,-107.9049 80.0183,-111.1753 89.9356,-114.903 90.0957,-107.9049"/>
<text text-anchor="start" x="102" y="-113" font-family="Helvetica,sans-Serif" font-size="10.00" fill="#000000">not (rx == 1&#39;b0) &#160;&#160;</text>
</g>
<!-- start -->
<g id="node3" class="node state regular">
<title>start</title>
<polygon fill="#ffffff" fill-opacity="0.003922" stroke="transparent" stroke-width="2" points="118,-52 62,-52 62,-16 118,-16 118,-52"/>
<text text-anchor="start" x="78.3324" y="-30.2" font-family="Helvetica,sans-Serif" font-size="12.00" fill="#000000">start</text>
<path fill="none" stroke="#000000" stroke-width="2" d="M74.3333,-17C74.3333,-17 105.6667,-17 105.6667,-17 111.3333,-17 117,-22.6667 117,-28.3333 117,-28.3333 117,-39.6667 117,-39.6667 117,-45.3333 111.3333,-51 105.6667,-51 105.6667,-51 74.3333,-51 74.3333,-51 68.6667,-51 63,-45.3333 63,-39.6667 63,-39.6667 63,-28.3333 63,-28.3333 63,-22.6667 68.6667,-17 74.3333,-17"/>
</g>
<!-- idle&#45;&gt;start -->
<g id="edge1" class="edge transition">
<title>idle&#45;&gt;start</title>
<path fill="none" stroke="#000000" d="M50.3278,-97.8692C50.2038,-88.8261 51.1626,-77.9402 55.212,-69 56.6701,-65.7808 58.5615,-62.6903 60.7088,-59.7706"/>
<polygon fill="#000000" stroke="#000000" points="63.4794,-61.9153 67.2903,-52.0295 58.1464,-57.3811 63.4794,-61.9153"/>
<text text-anchor="start" x="55" y="-72" font-family="Helvetica,sans-Serif" font-size="10.00" fill="#000000">rx == 1&#39;b0 &#160;&#160;</text>
</g>
<!-- start&#45;&gt;idle -->
<g id="edge3" class="edge transition">
<title>start&#45;&gt;idle</title>
<path fill="none" stroke="#000000" d="M105.0313,-52.347C110.4298,-61.2426 114.0705,-71.9364 109,-81 104.3784,-89.2611 96.9207,-95.8099 88.9017,-100.8993"/>
<polygon fill="#000000" stroke="#000000" points="87.0848,-97.9055 80.0875,-105.8609 90.5186,-104.0055 87.0848,-97.9055"/>
<text text-anchor="start" x="111" y="-72" font-family="Helvetica,sans-Serif" font-size="10.00" fill="#000000">not (counts &lt;= 7) &#160;&#160;</text>
</g>
</g>
</svg>
