<?xml version="1.0" encoding="UTF-8" standalone="no"?>
<!DOCTYPE svg PUBLIC "-//W3C//DTD SVG 1.1//EN"
 "http://www.w3.org/Graphics/SVG/1.1/DTD/svg11.dtd">
<!-- Generated by graphviz version 2.40.1 (20161225.0304)
 -->
<!-- Title: state transitions Pages: 1 -->
<svg width="216pt" height="188pt"
 viewBox="0.00 0.00 216.00 188.00" xmlns="http://www.w3.org/2000/svg" xmlns:xlink="http://www.w3.org/1999/xlink">
<g id="graph0" class="graph" transform="scale(1 1) rotate(0) translate(4 184)">
<title>state transitions</title>
<polygon fill="#ffffff" stroke="transparent" points="-4,4 -4,-184 212,-184 212,4 -4,4"/>
<g id="clust1" class="cluster state regular">
<title>cluster_state</title>
<path fill="none" stroke="#000000" stroke-width="2" d="M20,-8C20,-8 188,-8 188,-8 194,-8 200,-14 200,-20 200,-20 200,-160 200,-160 200,-166 194,-172 188,-172 188,-172 20,-172 20,-172 14,-172 8,-166 8,-160 8,-160 8,-20 8,-20 8,-14 14,-8 20,-8"/>
<text text-anchor="start" x="90.9944" y="-153.2" font-family="Helvetica,sans-Serif" font-size="12.00" fill="#000000">state</text>
</g>
<!-- state -->
<!-- idle -->
<g id="node2" class="node state regular">
<title>idle</title>
<polygon fill="#ffffff" fill-opacity="0.003922" stroke="transparent" stroke-width="2" points="79,-134 23,-134 23,-98 79,-98 79,-134"/>
<text text-anchor="start" x="41.6664" y="-112.2" font-family="Helvetica,sans-Serif" font-size="12.00" fill="#000000">idle</text>
<path fill="none" stroke="#000000" stroke-width="2" d="M35.3333,-99C35.3333,-99 66.6667,-99 66.6667,-99 72.3333,-99 78,-104.6667 78,-110.3333 78,-110.3333 78,-121.6667 78,-121.6667 78,-127.3333 72.3333,-133 66.6667,-133 66.6667,-133 35.3333,-133 35.3333,-133 29.6667,-133 24,-127.3333 24,-121.6667 24,-121.6667 24,-110.3333 24,-110.3333 24,-104.6667 29.6667,-99 35.3333,-99"/>
</g>
<!-- idle&#45;&gt;idle -->
<g id="edge2" class="edge transition">
<title>idle&#45;&gt;idle</title>
<path fill="none" stroke="#000000" d="M79.0183,-120.8247C90.888,-121.1883 101,-119.5801 101,-116 101,-113.5387 96.2205,-112.0094 89.3762,-111.4121"/>
<polygon fill="#000000" stroke="#000000" points="89.0957,-107.9049 79.0183,-111.1753 88.9356,-114.903 89.0957,-107.9049"/>
<text text-anchor="start" x="101" y="-113" font-family="Helvetica,sans-Serif" font-size="10.00" fill="#000000">not (newd) &#160;&#160;</text>
</g>
<!-- transfer -->
<g id="node3" class="node state regular">
<title>transfer</title>
<polygon fill="#ffffff" fill-opacity="0.003922" stroke="transparent" stroke-width="2" points="99,-52 37,-52 37,-16 99,-16 99,-52"/>
<text text-anchor="start" x="47.6642" y="-30.2" font-family="Helvetica,sans-Serif" font-size="12.00" fill="#000000">transfer</text>
<path fill="none" stroke="#000000" stroke-width="2" d="M49.3333,-17C49.3333,-17 86.6667,-17 86.6667,-17 92.3333,-17 98,-22.6667 98,-28.3333 98,-28.3333 98,-39.6667 98,-39.6667 98,-45.3333 92.3333,-51 86.6667,-51 86.6667,-51 49.3333,-51 49.3333,-51 43.6667,-51 38,-45.3333 38,-39.6667 38,-39.6667 38,-28.3333 38,-28.3333 38,-22.6667 43.6667,-17 49.3333,-17"/>
</g>
<!-- idle&#45;&gt;transfer -->
<g id="edge1" class="edge transition">
<title>idle&#45;&gt;transfer</title>
<path fill="none" stroke="#000000" d="M51.2602,-97.9681C51.6866,-89.1471 52.6522,-78.425 54.767,-69 55.295,-66.6468 55.9482,-64.24 56.6791,-61.8448"/>
<polygon fill="#000000" stroke="#000000" points="60.0437,-62.8242 60,-52.2294 53.4272,-60.5389 60.0437,-62.8242"/>
<text text-anchor="start" x="54" y="-72" font-family="Helvetica,sans-Serif" font-size="10.00" fill="#000000">newd &#160;&#160;</text>
</g>
<!-- transfer&#45;&gt;idle -->
<g id="edge4" class="edge transition">
<title>transfer&#45;&gt;idle</title>
<path fill="none" stroke="#000000" d="M83.0521,-52.3181C88.343,-61.0161 92.0681,-71.552 88,-81 86.5936,-84.2663 84.7159,-87.3702 82.5496,-90.2821"/>
<polygon fill="#000000" stroke="#000000" points="79.7857,-88.1256 75.8325,-97.9553 85.0528,-92.7364 79.7857,-88.1256"/>
<text text-anchor="start" x="89" y="-72" font-family="Helvetica,sans-Serif" font-size="10.00" fill="#000000">not (counts &lt; 8) &#160;&#160;</text>
</g>
<!-- transfer&#45;&gt;transfer -->
<g id="edge3" class="edge transition">
<title>transfer&#45;&gt;transfer</title>
<path fill="none" stroke="#000000" d="M99.0304,-38.856C111.028,-39.0718 121,-37.4531 121,-34 121,-31.626 116.2867,-30.119 109.4422,-29.4792"/>
<polygon fill="#000000" stroke="#000000" points="109.1379,-25.9676 99.0304,-29.144 108.9126,-32.964 109.1379,-25.9676"/>
<text text-anchor="start" x="121" y="-31" font-family="Helvetica,sans-Serif" font-size="10.00" fill="#000000">counts &lt; 8 &#160;&#160;</text>
</g>
</g>
</svg>
