<?xml version="1.0" encoding="UTF-8" standalone="no"?>
<!DOCTYPE svg PUBLIC "-//W3C//DTD SVG 1.1//EN"
 "http://www.w3.org/Graphics/SVG/1.1/DTD/svg11.dtd">
<!-- Generated by graphviz version 2.40.1 (20161225.0304)
 -->
<!-- Title: state transitions Pages: 1 -->
<svg width="946pt" height="646pt"
 viewBox="0.00 0.00 945.83 646.00" xmlns="http://www.w3.org/2000/svg" xmlns:xlink="http://www.w3.org/1999/xlink">
<g id="graph0" class="graph" transform="scale(1 1) rotate(0) translate(4 642)">
<title>state transitions</title>
<polygon fill="#ffffff" stroke="transparent" points="-4,4 -4,-642 941.833,-642 941.833,4 -4,4"/>
<g id="clust1" class="cluster state regular">
<title>cluster_state</title>
<path fill="none" stroke="#000000" stroke-width="2" d="M20,-8C20,-8 884,-8 884,-8 890,-8 896,-14 896,-20 896,-20 896,-618 896,-618 896,-624 890,-630 884,-630 884,-630 20,-630 20,-630 14,-630 8,-624 8,-618 8,-618 8,-20 8,-20 8,-14 14,-8 20,-8"/>
<text text-anchor="start" x="438.9944" y="-611.2" font-family="Helvetica,sans-Serif" font-size="12.00" fill="#000000">state</text>
</g>
<!-- state -->
<!-- idle -->
<g id="node2" class="node state regular">
<title>idle</title>
<polygon fill="#ffffff" fill-opacity="0.003922" stroke="transparent" stroke-width="2" points="675,-592 619,-592 619,-556 675,-556 675,-592"/>
<text text-anchor="start" x="637.6664" y="-570.2" font-family="Helvetica,sans-Serif" font-size="12.00" fill="#000000">idle</text>
<path fill="none" stroke="#000000" stroke-width="2" d="M631.3333,-557C631.3333,-557 662.6667,-557 662.6667,-557 668.3333,-557 674,-562.6667 674,-568.3333 674,-568.3333 674,-579.6667 674,-579.6667 674,-585.3333 668.3333,-591 662.6667,-591 662.6667,-591 631.3333,-591 631.3333,-591 625.6667,-591 620,-585.3333 620,-579.6667 620,-579.6667 620,-568.3333 620,-568.3333 620,-562.6667 625.6667,-557 631.3333,-557"/>
</g>
<!-- idle&#45;&gt;idle -->
<g id="edge2" class="edge transition">
<title>idle&#45;&gt;idle</title>
<path fill="none" stroke="#000000" d="M675.0183,-578.8247C686.888,-579.1883 697,-577.5801 697,-574 697,-571.5387 692.2205,-570.0094 685.3762,-569.4121"/>
<polygon fill="#000000" stroke="#000000" points="685.0957,-565.9049 675.0183,-569.1753 684.9356,-572.903 685.0957,-565.9049"/>
<text text-anchor="start" x="697" y="-571" font-family="Helvetica,sans-Serif" font-size="10.00" fill="#000000">not (newd == 1&#39;b1) &#160;&#160;</text>
</g>
<!-- start -->
<g id="node3" class="node state regular">
<title>start</title>
<polygon fill="#ffffff" fill-opacity="0.003922" stroke="transparent" stroke-width="2" points="478,-510 422,-510 422,-474 478,-474 478,-510"/>
<text text-anchor="start" x="438.3324" y="-488.2" font-family="Helvetica,sans-Serif" font-size="12.00" fill="#000000">start</text>
<path fill="none" stroke="#000000" stroke-width="2" d="M434.3333,-475C434.3333,-475 465.6667,-475 465.6667,-475 471.3333,-475 477,-480.6667 477,-486.3333 477,-486.3333 477,-497.6667 477,-497.6667 477,-503.3333 471.3333,-509 465.6667,-509 465.6667,-509 434.3333,-509 434.3333,-509 428.6667,-509 423,-503.3333 423,-497.6667 423,-497.6667 423,-486.3333 423,-486.3333 423,-480.6667 428.6667,-475 434.3333,-475"/>
</g>
<!-- idle&#45;&gt;start -->
<g id="edge1" class="edge transition">
<title>idle&#45;&gt;start</title>
<path fill="none" stroke="#000000" d="M618.7747,-562.2514C584.2508,-547.881 525.6938,-523.507 487.4353,-507.5822"/>
<polygon fill="#000000" stroke="#000000" points="488.7501,-504.3384 478.1729,-503.7268 486.0601,-510.801 488.7501,-504.3384"/>
<text text-anchor="start" x="561" y="-530" font-family="Helvetica,sans-Serif" font-size="10.00" fill="#000000">newd == 1&#39;b1 &#160;&#160;</text>
</g>
<!-- start&#45;&gt;start -->
<g id="edge4" class="edge transition">
<title>start&#45;&gt;start</title>
<path fill="none" stroke="#000000" d="M478.0183,-496.8247C489.888,-497.1883 500,-495.5801 500,-492 500,-489.5387 495.2205,-488.0094 488.3762,-487.4121"/>
<polygon fill="#000000" stroke="#000000" points="488.0957,-483.9049 478.0183,-487.1753 487.9356,-490.903 488.0957,-483.9049"/>
<text text-anchor="start" x="500" y="-489" font-family="Helvetica,sans-Serif" font-size="10.00" fill="#000000">not (count1 == clk_count1 * 4 &#45; 1) &#160;&#160;</text>
</g>
<!-- write_addr -->
<g id="node4" class="node state regular">
<title>write_addr</title>
<polygon fill="#ffffff" fill-opacity="0.003922" stroke="transparent" stroke-width="2" points="408,-428 330,-428 330,-392 408,-392 408,-428"/>
<text text-anchor="start" x="340.998" y="-406.2" font-family="Helvetica,sans-Serif" font-size="12.00" fill="#000000">write_addr</text>
<path fill="none" stroke="#000000" stroke-width="2" d="M342.3333,-393C342.3333,-393 395.6667,-393 395.6667,-393 401.3333,-393 407,-398.6667 407,-404.3333 407,-404.3333 407,-415.6667 407,-415.6667 407,-421.3333 401.3333,-427 395.6667,-427 395.6667,-427 342.3333,-427 342.3333,-427 336.6667,-427 331,-421.3333 331,-415.6667 331,-415.6667 331,-404.3333 331,-404.3333 331,-398.6667 336.6667,-393 342.3333,-393"/>
</g>
<!-- start&#45;&gt;write_addr -->
<g id="edge3" class="edge transition">
<title>start&#45;&gt;write_addr</title>
<path fill="none" stroke="#000000" d="M432.0235,-473.8015C420.9075,-462.5483 406.4722,-447.9348 394.2221,-435.5335"/>
<polygon fill="#000000" stroke="#000000" points="396.4439,-432.8023 386.9263,-428.1476 391.4638,-437.7216 396.4439,-432.8023"/>
<text text-anchor="start" x="414" y="-448" font-family="Helvetica,sans-Serif" font-size="10.00" fill="#000000">count1 == clk_count1 * 4 &#45; 1 &#160;&#160;</text>
</g>
<!-- write_addr&#45;&gt;write_addr -->
<g id="edge5" class="edge transition">
<title>write_addr&#45;&gt;write_addr</title>
<path fill="none" stroke="#000000" d="M408.0143,-412.4362C420.3043,-412.399 430,-411.5869 430,-410 430,-408.8842 425.2066,-408.1515 418.0883,-407.8018"/>
<polygon fill="#000000" stroke="#000000" points="418.0942,-404.3011 408.0143,-407.5638 417.9288,-411.2991 418.0942,-404.3011"/>
<text text-anchor="start" x="430" y="-413" font-family="Helvetica,sans-Serif" font-size="10.00" fill="#000000">count1 == clk_count1 * 4 &#45; 1 &#160;&#160;</text>
<text text-anchor="start" x="430" y="-401" font-family="Helvetica,sans-Serif" font-size="10.00" fill="#000000">bitcount &lt;= 7 &#160;&#160;</text>
</g>
<!-- write_addr&#45;&gt;write_addr -->
<g id="edge6" class="edge transition">
<title>write_addr&#45;&gt;write_addr</title>
<path fill="none" stroke="#000000" d="M408.2467,-413.5393C466.4207,-416.1309 562.833,-414.9512 562.833,-410 562.833,-405.3293 477.0331,-404.0148 418.4753,-406.0566"/>
<polygon fill="#000000" stroke="#000000" points="418.1007,-402.5686 408.2467,-406.4607 418.3771,-409.5631 418.1007,-402.5686"/>
<text text-anchor="start" x="562.833" y="-413" font-family="Helvetica,sans-Serif" font-size="10.00" fill="#000000">not (count1 == clk_count1 * 4 &#45; 1) &#160;&#160;</text>
<text text-anchor="start" x="562.833" y="-401" font-family="Helvetica,sans-Serif" font-size="10.00" fill="#000000">bitcount &lt;= 7 &#160;&#160;</text>
</g>
<!-- ack_1 -->
<g id="node5" class="node state regular">
<title>ack_1</title>
<polygon fill="#ffffff" fill-opacity="0.003922" stroke="transparent" stroke-width="2" points="465,-346 409,-346 409,-310 465,-310 465,-346"/>
<text text-anchor="start" x="420.9938" y="-324.2" font-family="Helvetica,sans-Serif" font-size="12.00" fill="#000000">ack_1</text>
<path fill="none" stroke="#000000" stroke-width="2" d="M421.3333,-311C421.3333,-311 452.6667,-311 452.6667,-311 458.3333,-311 464,-316.6667 464,-322.3333 464,-322.3333 464,-333.6667 464,-333.6667 464,-339.3333 458.3333,-345 452.6667,-345 452.6667,-345 421.3333,-345 421.3333,-345 415.6667,-345 410,-339.3333 410,-333.6667 410,-333.6667 410,-322.3333 410,-322.3333 410,-316.6667 415.6667,-311 421.3333,-311"/>
</g>
<!-- write_addr&#45;&gt;ack_1 -->
<g id="edge7" class="edge transition">
<title>write_addr&#45;&gt;ack_1</title>
<path fill="none" stroke="#000000" d="M384.0914,-391.8015C393.3353,-380.6545 405.3134,-366.2103 415.5343,-353.8851"/>
<polygon fill="#000000" stroke="#000000" points="418.2615,-356.0794 421.9508,-346.1476 412.8732,-351.611 418.2615,-356.0794"/>
<text text-anchor="start" x="407" y="-366" font-family="Helvetica,sans-Serif" font-size="10.00" fill="#000000">not (bitcount &lt;= 7) &#160;&#160;</text>
</g>
<!-- ack_1&#45;&gt;ack_1 -->
<g id="edge11" class="edge transition">
<title>ack_1&#45;&gt;ack_1</title>
<path fill="none" stroke="#000000" d="M465.0183,-332.8247C476.888,-333.1883 487,-331.5801 487,-328 487,-325.5387 482.2205,-324.0094 475.3762,-323.4121"/>
<polygon fill="#000000" stroke="#000000" points="475.0957,-319.9049 465.0183,-323.1753 474.9356,-326.903 475.0957,-319.9049"/>
<text text-anchor="start" x="487" y="-325" font-family="Helvetica,sans-Serif" font-size="10.00" fill="#000000">not (count1 == clk_count1 * 4 &#45; 1) &#160;&#160;</text>
</g>
<!-- write_data -->
<g id="node6" class="node state regular">
<title>write_data</title>
<polygon fill="#ffffff" fill-opacity="0.003922" stroke="transparent" stroke-width="2" points="93.5,-252 16.5,-252 16.5,-216 93.5,-216 93.5,-252"/>
<text text-anchor="start" x="27.828" y="-230.2" font-family="Helvetica,sans-Serif" font-size="12.00" fill="#000000">write_data</text>
<path fill="none" stroke="#000000" stroke-width="2" d="M28.8333,-217C28.8333,-217 81.1667,-217 81.1667,-217 86.8333,-217 92.5,-222.6667 92.5,-228.3333 92.5,-228.3333 92.5,-239.6667 92.5,-239.6667 92.5,-245.3333 86.8333,-251 81.1667,-251 81.1667,-251 28.8333,-251 28.8333,-251 23.1667,-251 17.5,-245.3333 17.5,-239.6667 17.5,-239.6667 17.5,-228.3333 17.5,-228.3333 17.5,-222.6667 23.1667,-217 28.8333,-217"/>
</g>
<!-- ack_1&#45;&gt;write_data -->
<g id="edge8" class="edge transition">
<title>ack_1&#45;&gt;write_data</title>
<path fill="none" stroke="#000000" d="M408.8827,-322.8254C375.052,-316.4584 316.6,-305.008 266.938,-293 210.4542,-279.3425 146.248,-261.0787 103.4504,-248.5081"/>
<polygon fill="#000000" stroke="#000000" points="104.4343,-245.1493 93.8527,-245.679 102.4551,-251.8637 104.4343,-245.1493"/>
<text text-anchor="start" x="266" y="-284" font-family="Helvetica,sans-Serif" font-size="10.00" fill="#000000">r_ack == 1&#39;b0 &amp;&amp; data_addr[0] == 1&#39;b0 &#160;&#160;</text>
<text text-anchor="start" x="266" y="-272" font-family="Helvetica,sans-Serif" font-size="10.00" fill="#000000">count1 == clk_count1 * 4 &#45; 1 &#160;&#160;</text>
</g>
<!-- read_data -->
<g id="node7" class="node state regular">
<title>read_data</title>
<polygon fill="#ffffff" fill-opacity="0.003922" stroke="transparent" stroke-width="2" points="516,-252 440,-252 440,-216 516,-216 516,-252"/>
<text text-anchor="start" x="450.9874" y="-230.2" font-family="Helvetica,sans-Serif" font-size="12.00" fill="#000000">read_data</text>
<path fill="none" stroke="#000000" stroke-width="2" d="M452.3333,-217C452.3333,-217 503.6667,-217 503.6667,-217 509.3333,-217 515,-222.6667 515,-228.3333 515,-228.3333 515,-239.6667 515,-239.6667 515,-245.3333 509.3333,-251 503.6667,-251 503.6667,-251 452.3333,-251 452.3333,-251 446.6667,-251 441,-245.3333 441,-239.6667 441,-239.6667 441,-228.3333 441,-228.3333 441,-222.6667 446.6667,-217 452.3333,-217"/>
</g>
<!-- ack_1&#45;&gt;read_data -->
<g id="edge9" class="edge transition">
<title>ack_1&#45;&gt;read_data</title>
<path fill="none" stroke="#000000" d="M444.9052,-309.8759C450.9175,-296.0915 459.2897,-276.8968 466.1088,-261.2627"/>
<polygon fill="#000000" stroke="#000000" points="469.3292,-262.6339 470.1191,-252.0685 462.9129,-259.8353 469.3292,-262.6339"/>
<text text-anchor="start" x="462" y="-284" font-family="Helvetica,sans-Serif" font-size="10.00" fill="#000000">r_ack == 1&#39;b0 &amp;&amp; data_addr[0] == 1&#39;b1 &#160;&#160;</text>
<text text-anchor="start" x="462" y="-272" font-family="Helvetica,sans-Serif" font-size="10.00" fill="#000000">count1 == clk_count1 * 4 &#45; 1 &#160;&#160;</text>
</g>
<!-- stop -->
<g id="node8" class="node state regular">
<title>stop</title>
<polygon fill="#ffffff" fill-opacity="0.003922" stroke="transparent" stroke-width="2" points="509,-52 453,-52 453,-16 509,-16 509,-52"/>
<text text-anchor="start" x="469.6618" y="-30.2" font-family="Helvetica,sans-Serif" font-size="12.00" fill="#000000">stop</text>
<path fill="none" stroke="#000000" stroke-width="2" d="M465.3333,-17C465.3333,-17 496.6667,-17 496.6667,-17 502.3333,-17 508,-22.6667 508,-28.3333 508,-28.3333 508,-39.6667 508,-39.6667 508,-45.3333 502.3333,-51 496.6667,-51 496.6667,-51 465.3333,-51 465.3333,-51 459.6667,-51 454,-45.3333 454,-39.6667 454,-39.6667 454,-28.3333 454,-28.3333 454,-22.6667 459.6667,-17 465.3333,-17"/>
</g>
<!-- ack_1&#45;&gt;stop -->
<g id="edge10" class="edge transition">
<title>ack_1&#45;&gt;stop</title>
<path fill="none" stroke="#000000" d="M465.1362,-327.3473C550.2109,-324.7199 801.9191,-311.9267 851,-252 861.138,-239.6217 861.7476,-227.8528 851,-216 824.9927,-187.3182 708.2921,-222.6064 677.604,-199 660.872,-186.1291 661,-175.6097 661,-154.5 661,-154.5 661,-154.5 661,-81 661,-51.932 572.0107,-40.5048 519.1734,-36.2818"/>
<polygon fill="#000000" stroke="#000000" points="519.3583,-32.7859 509.125,-35.5302 518.836,-39.7664 519.3583,-32.7859"/>
<text text-anchor="start" x="677" y="-190" font-family="Helvetica,sans-Serif" font-size="10.00" fill="#000000">not (r_ack == 1&#39;b0 &amp;&amp; data_addr[0] == 1&#39;b0) &#160;&#160;</text>
<text text-anchor="start" x="677" y="-178" font-family="Helvetica,sans-Serif" font-size="10.00" fill="#000000">not (r_ack == 1&#39;b0 &amp;&amp; data_addr[0] == 1&#39;b1) &#160;&#160;</text>
<text text-anchor="start" x="677" y="-166" font-family="Helvetica,sans-Serif" font-size="10.00" fill="#000000">count1 == clk_count1 * 4 &#45; 1 &#160;&#160;</text>
</g>
<!-- write_data&#45;&gt;write_data -->
<g id="edge12" class="edge transition">
<title>write_data&#45;&gt;write_data</title>
<path fill="none" stroke="#000000" d="M93.6945,-236.4362C105.8838,-236.399 115.5,-235.5869 115.5,-234 115.5,-232.909 110.9548,-232.1842 104.1532,-231.8257"/>
<polygon fill="#000000" stroke="#000000" points="103.779,-228.3153 93.6945,-231.5638 103.6037,-235.3132 103.779,-228.3153"/>
<text text-anchor="start" x="115.5" y="-237" font-family="Helvetica,sans-Serif" font-size="10.00" fill="#000000">count1 == clk_count1 * 4 &#45; 1 &#160;&#160;</text>
<text text-anchor="start" x="115.5" y="-225" font-family="Helvetica,sans-Serif" font-size="10.00" fill="#000000">bitcount &lt;= 7 &#160;&#160;</text>
</g>
<!-- write_data&#45;&gt;write_data -->
<g id="edge13" class="edge transition">
<title>write_data&#45;&gt;write_data</title>
<path fill="none" stroke="#000000" d="M93.6604,-237.5193C151.6201,-240.137 248.333,-238.9639 248.333,-234 248.333,-229.3173 162.2656,-228.0081 103.8574,-230.0724"/>
<polygon fill="#000000" stroke="#000000" points="103.5124,-226.5833 93.6604,-230.4807 103.7925,-233.5777 103.5124,-226.5833"/>
<text text-anchor="start" x="248.333" y="-237" font-family="Helvetica,sans-Serif" font-size="10.00" fill="#000000">not (count1 == clk_count1 * 4 &#45; 1) &#160;&#160;</text>
<text text-anchor="start" x="248.333" y="-225" font-family="Helvetica,sans-Serif" font-size="10.00" fill="#000000">bitcount &lt;= 7 &#160;&#160;</text>
</g>
<!-- ack_2 -->
<g id="node9" class="node state regular">
<title>ack_2</title>
<polygon fill="#ffffff" fill-opacity="0.003922" stroke="transparent" stroke-width="2" points="155,-146 99,-146 99,-110 155,-110 155,-146"/>
<text text-anchor="start" x="110.9938" y="-124.2" font-family="Helvetica,sans-Serif" font-size="12.00" fill="#000000">ack_2</text>
<path fill="none" stroke="#000000" stroke-width="2" d="M111.3333,-111C111.3333,-111 142.6667,-111 142.6667,-111 148.3333,-111 154,-116.6667 154,-122.3333 154,-122.3333 154,-133.6667 154,-133.6667 154,-139.3333 148.3333,-145 142.6667,-145 142.6667,-145 111.3333,-145 111.3333,-145 105.6667,-145 100,-139.3333 100,-133.6667 100,-133.6667 100,-122.3333 100,-122.3333 100,-116.6667 105.6667,-111 111.3333,-111"/>
</g>
<!-- write_data&#45;&gt;ack_2 -->
<g id="edge14" class="edge transition">
<title>write_data&#45;&gt;ack_2</title>
<path fill="none" stroke="#000000" d="M67.5414,-215.5362C78.9498,-198.7406 95.9252,-173.749 108.8207,-154.7639"/>
<polygon fill="#000000" stroke="#000000" points="111.8787,-156.491 114.6023,-146.2522 106.0881,-152.5578 111.8787,-156.491"/>
<text text-anchor="start" x="102" y="-178" font-family="Helvetica,sans-Serif" font-size="10.00" fill="#000000">not (bitcount &lt;= 7) &#160;&#160;</text>
</g>
<!-- read_data&#45;&gt;read_data -->
<g id="edge15" class="edge transition">
<title>read_data&#45;&gt;read_data</title>
<path fill="none" stroke="#000000" d="M516.0841,-236.4369C528.3101,-236.4119 538,-235.5996 538,-234 538,-232.8753 533.2094,-232.1398 526.1151,-231.7935"/>
<polygon fill="#000000" stroke="#000000" points="526.1619,-228.2938 516.0841,-231.5631 526.001,-235.2919 526.1619,-228.2938"/>
<text text-anchor="start" x="538" y="-237" font-family="Helvetica,sans-Serif" font-size="10.00" fill="#000000">count1 == clk_count1 * 4 &#45; 1 &#160;&#160;</text>
<text text-anchor="start" x="538" y="-225" font-family="Helvetica,sans-Serif" font-size="10.00" fill="#000000">bitcount &lt;= 7 &#160;&#160;</text>
</g>
<!-- read_data&#45;&gt;read_data -->
<g id="edge16" class="edge transition">
<title>read_data&#45;&gt;read_data</title>
<path fill="none" stroke="#000000" d="M516.0783,-237.4991C573.8201,-240.1429 670.833,-238.9766 670.833,-234 670.833,-229.3053 584.4986,-228.0014 526.2431,-230.0883"/>
<polygon fill="#000000" stroke="#000000" points="525.9281,-226.5981 516.0783,-230.5009 526.212,-233.5923 525.9281,-226.5981"/>
<text text-anchor="start" x="670.833" y="-237" font-family="Helvetica,sans-Serif" font-size="10.00" fill="#000000">not (count1 == clk_count1 * 4 &#45; 1) &#160;&#160;</text>
<text text-anchor="start" x="670.833" y="-225" font-family="Helvetica,sans-Serif" font-size="10.00" fill="#000000">bitcount &lt;= 7 &#160;&#160;</text>
</g>
<!-- master_ack -->
<g id="node10" class="node state regular">
<title>master_ack</title>
<polygon fill="#ffffff" fill-opacity="0.003922" stroke="transparent" stroke-width="2" points="464,-146 380,-146 380,-110 464,-110 464,-146"/>
<text text-anchor="start" x="390.9962" y="-124.2" font-family="Helvetica,sans-Serif" font-size="12.00" fill="#000000">master_ack</text>
<path fill="none" stroke="#000000" stroke-width="2" d="M392.3333,-111C392.3333,-111 451.6667,-111 451.6667,-111 457.3333,-111 463,-116.6667 463,-122.3333 463,-122.3333 463,-133.6667 463,-133.6667 463,-139.3333 457.3333,-145 451.6667,-145 451.6667,-145 392.3333,-145 392.3333,-145 386.6667,-145 381,-139.3333 381,-133.6667 381,-133.6667 381,-122.3333 381,-122.3333 381,-116.6667 386.6667,-111 392.3333,-111"/>
</g>
<!-- read_data&#45;&gt;master_ack -->
<g id="edge17" class="edge transition">
<title>read_data&#45;&gt;master_ack</title>
<path fill="none" stroke="#000000" d="M468.2455,-215.5362C459.4527,-198.8926 446.4079,-174.2007 436.4125,-155.2808"/>
<polygon fill="#000000" stroke="#000000" points="439.4086,-153.4592 431.6427,-146.2522 433.2193,-156.7291 439.4086,-153.4592"/>
<text text-anchor="start" x="459" y="-178" font-family="Helvetica,sans-Serif" font-size="10.00" fill="#000000">not (bitcount &lt;= 7) &#160;&#160;</text>
</g>
<!-- stop&#45;&gt;idle -->
<g id="edge18" class="edge transition">
<title>stop&#45;&gt;idle</title>
<path fill="none" stroke="#000000" d="M509.2268,-34.3004C601.2985,-35.6495 887,-42.905 887,-81 887,-260.5 887,-260.5 887,-260.5 887,-332.5219 755,-282.4781 755,-354.5 755,-533 755,-533 755,-533 755,-548.361 716.3305,-560.0188 685.2691,-566.9053"/>
<polygon fill="#000000" stroke="#000000" points="684.1537,-563.5636 675.0938,-569.0562 685.6015,-570.4123 684.1537,-563.5636"/>
<text text-anchor="start" x="805" y="-325" font-family="Helvetica,sans-Serif" font-size="10.00" fill="#000000">count1 == clk_count1 * 4 &#45; 1 &#160;&#160;</text>
</g>
<!-- stop&#45;&gt;stop -->
<g id="edge19" class="edge transition">
<title>stop&#45;&gt;stop</title>
<path fill="none" stroke="#000000" d="M509.0183,-38.8247C520.888,-39.1883 531,-37.5801 531,-34 531,-31.5387 526.2205,-30.0094 519.3762,-29.4121"/>
<polygon fill="#000000" stroke="#000000" points="519.0957,-25.9049 509.0183,-29.1753 518.9356,-32.903 519.0957,-25.9049"/>
<text text-anchor="start" x="531" y="-31" font-family="Helvetica,sans-Serif" font-size="10.00" fill="#000000">not (count1 == clk_count1 * 4 &#45; 1) &#160;&#160;</text>
</g>
<!-- ack_2&#45;&gt;stop -->
<g id="edge20" class="edge transition">
<title>ack_2&#45;&gt;stop</title>
<path fill="none" stroke="#000000" d="M127.1861,-109.9333C128.362,-96.5244 132.2923,-78.9128 144.167,-69 166.728,-50.1665 359.5267,-39.4015 442.8725,-35.5903"/>
<polygon fill="#000000" stroke="#000000" points="443.1107,-39.0832 452.9441,-35.1394 442.7975,-32.0903 443.1107,-39.0832"/>
<text text-anchor="start" x="144" y="-84" font-family="Helvetica,sans-Serif" font-size="10.00" fill="#000000">r_ack == 1&#39;b0 &#160;&#160;</text>
<text text-anchor="start" x="144" y="-72" font-family="Helvetica,sans-Serif" font-size="10.00" fill="#000000">count1 == clk_count1 * 4 &#45; 1 &#160;&#160;</text>
</g>
<!-- ack_2&#45;&gt;stop -->
<g id="edge21" class="edge transition">
<title>ack_2&#45;&gt;stop</title>
<path fill="none" stroke="#000000" d="M155.0747,-125.5171C186.4589,-121.8496 238.1067,-113.1005 278,-93 292.6877,-85.5995 291.3693,-76.178 306.167,-69 350.0211,-47.7276 406.0693,-39.3823 442.721,-36.1096"/>
<polygon fill="#000000" stroke="#000000" points="443.2918,-39.575 452.9775,-35.2812 442.7282,-32.5977 443.2918,-39.575"/>
<text text-anchor="start" x="306" y="-84" font-family="Helvetica,sans-Serif" font-size="10.00" fill="#000000">not (r_ack == 1&#39;b0) &#160;&#160;</text>
<text text-anchor="start" x="306" y="-72" font-family="Helvetica,sans-Serif" font-size="10.00" fill="#000000">count1 == clk_count1 * 4 &#45; 1 &#160;&#160;</text>
</g>
<!-- ack_2&#45;&gt;ack_2 -->
<g id="edge22" class="edge transition">
<title>ack_2&#45;&gt;ack_2</title>
<path fill="none" stroke="#000000" d="M155.0183,-132.8247C166.888,-133.1883 177,-131.5801 177,-128 177,-125.5387 172.2205,-124.0094 165.3762,-123.4121"/>
<polygon fill="#000000" stroke="#000000" points="165.0957,-119.9049 155.0183,-123.1753 164.9356,-126.903 165.0957,-119.9049"/>
<text text-anchor="start" x="177" y="-125" font-family="Helvetica,sans-Serif" font-size="10.00" fill="#000000">not (count1 == clk_count1 * 4 &#45; 1) &#160;&#160;</text>
</g>
<!-- master_ack&#45;&gt;stop -->
<g id="edge23" class="edge transition">
<title>master_ack&#45;&gt;stop</title>
<path fill="none" stroke="#000000" d="M433.3758,-109.8759C442.1093,-95.9615 454.303,-76.5342 464.1655,-60.8211"/>
<polygon fill="#000000" stroke="#000000" points="467.3074,-62.399 469.6591,-52.0685 461.3785,-58.6777 467.3074,-62.399"/>
<text text-anchor="start" x="458" y="-78" font-family="Helvetica,sans-Serif" font-size="10.00" fill="#000000">count1 == clk_count1 * 4 &#45; 1 &#160;&#160;</text>
</g>
<!-- master_ack&#45;&gt;master_ack -->
<g id="edge24" class="edge transition">
<title>master_ack&#45;&gt;master_ack</title>
<path fill="none" stroke="#000000" d="M464.1623,-132.8604C476.4681,-132.6924 486,-131.0723 486,-128 486,-125.8398 481.2876,-124.3975 474.2119,-123.6732"/>
<polygon fill="#000000" stroke="#000000" points="474.3338,-120.1748 464.1623,-123.1396 473.9626,-127.165 474.3338,-120.1748"/>
<text text-anchor="start" x="486" y="-125" font-family="Helvetica,sans-Serif" font-size="10.00" fill="#000000">not (count1 == clk_count1 * 4 &#45; 1) &#160;&#160;</text>
</g>
</g>
</svg>
