<?xml version="1.0" encoding="UTF-8" standalone="no"?>
<!DOCTYPE svg PUBLIC "-//W3C//DTD SVG 1.1//EN"
 "http://www.w3.org/Graphics/SVG/1.1/DTD/svg11.dtd">
<!-- Generated by graphviz version 2.40.1 (20161225.0304)
 -->
<!-- Title: state transitions Pages: 1 -->
<svg width="893pt" height="622pt"
 viewBox="0.00 0.00 892.74 622.00" xmlns="http://www.w3.org/2000/svg" xmlns:xlink="http://www.w3.org/1999/xlink">
<g id="graph0" class="graph" transform="scale(1 1) rotate(0) translate(4 618)">
<title>state transitions</title>
<polygon fill="#ffffff" stroke="transparent" points="-4,4 -4,-618 888.738,-618 888.738,4 -4,4"/>
<g id="clust1" class="cluster state regular">
<title>cluster_state</title>
<path fill="none" stroke="#000000" stroke-width="2" d="M20,-8C20,-8 860,-8 860,-8 866,-8 872,-14 872,-20 872,-20 872,-594 872,-594 872,-600 866,-606 860,-606 860,-606 20,-606 20,-606 14,-606 8,-600 8,-594 8,-594 8,-20 8,-20 8,-14 14,-8 20,-8"/>
<text text-anchor="start" x="426.9944" y="-587.2" font-family="Helvetica,sans-Serif" font-size="12.00" fill="#000000">state</text>
</g>
<!-- state -->
<!-- idle -->
<g id="node2" class="node state regular">
<title>idle</title>
<polygon fill="#ffffff" fill-opacity="0.003922" stroke="transparent" stroke-width="2" points="582,-568 526,-568 526,-532 582,-532 582,-568"/>
<text text-anchor="start" x="544.6664" y="-546.2" font-family="Helvetica,sans-Serif" font-size="12.00" fill="#000000">idle</text>
<path fill="none" stroke="#000000" stroke-width="2" d="M538.3333,-533C538.3333,-533 569.6667,-533 569.6667,-533 575.3333,-533 581,-538.6667 581,-544.3333 581,-544.3333 581,-555.6667 581,-555.6667 581,-561.3333 575.3333,-567 569.6667,-567 569.6667,-567 538.3333,-567 538.3333,-567 532.6667,-567 527,-561.3333 527,-555.6667 527,-555.6667 527,-544.3333 527,-544.3333 527,-538.6667 532.6667,-533 538.3333,-533"/>
</g>
<!-- idle&#45;&gt;idle -->
<g id="edge2" class="edge transition">
<title>idle&#45;&gt;idle</title>
<path fill="none" stroke="#000000" d="M582.0183,-554.8247C593.888,-555.1883 604,-553.5801 604,-550 604,-547.5387 599.2205,-546.0094 592.3762,-545.4121"/>
<polygon fill="#000000" stroke="#000000" points="592.0957,-541.9049 582.0183,-545.1753 591.9356,-548.903 592.0957,-541.9049"/>
<text text-anchor="start" x="604" y="-547" font-family="Helvetica,sans-Serif" font-size="10.00" fill="#000000">not (scl == 1&#39;b1 &amp;&amp; sda == 1&#39;b0) &#160;&#160;</text>
</g>
<!-- wait_p -->
<g id="node9" class="node state regular">
<title>wait_p</title>
<polygon fill="#ffffff" fill-opacity="0.003922" stroke="transparent" stroke-width="2" points="418,-486 362,-486 362,-450 418,-450 418,-486"/>
<text text-anchor="start" x="372.6636" y="-464.2" font-family="Helvetica,sans-Serif" font-size="12.00" fill="#000000">wait_p</text>
<path fill="none" stroke="#000000" stroke-width="2" d="M374.3333,-451C374.3333,-451 405.6667,-451 405.6667,-451 411.3333,-451 417,-456.6667 417,-462.3333 417,-462.3333 417,-473.6667 417,-473.6667 417,-479.3333 411.3333,-485 405.6667,-485 405.6667,-485 374.3333,-485 374.3333,-485 368.6667,-485 363,-479.3333 363,-473.6667 363,-473.6667 363,-462.3333 363,-462.3333 363,-456.6667 368.6667,-451 374.3333,-451"/>
</g>
<!-- idle&#45;&gt;wait_p -->
<g id="edge1" class="edge transition">
<title>idle&#45;&gt;wait_p</title>
<path fill="none" stroke="#000000" d="M525.8074,-535.9037C498.6193,-522.3097 457.3017,-501.6509 427.3805,-486.6903"/>
<polygon fill="#000000" stroke="#000000" points="428.6082,-483.391 418.0987,-482.0493 425.4777,-489.652 428.6082,-483.391"/>
<text text-anchor="start" x="482" y="-506" font-family="Helvetica,sans-Serif" font-size="10.00" fill="#000000">scl == 1&#39;b1 &amp;&amp; sda == 1&#39;b0 &#160;&#160;</text>
</g>
<!-- read_addr -->
<g id="node3" class="node state regular">
<title>read_addr</title>
<polygon fill="#ffffff" fill-opacity="0.003922" stroke="transparent" stroke-width="2" points="360,-404 284,-404 284,-368 360,-368 360,-404"/>
<text text-anchor="start" x="294.6574" y="-382.2" font-family="Helvetica,sans-Serif" font-size="12.00" fill="#000000">read_addr</text>
<path fill="none" stroke="#000000" stroke-width="2" d="M296.3333,-369C296.3333,-369 347.6667,-369 347.6667,-369 353.3333,-369 359,-374.6667 359,-380.3333 359,-380.3333 359,-391.6667 359,-391.6667 359,-397.3333 353.3333,-403 347.6667,-403 347.6667,-403 296.3333,-403 296.3333,-403 290.6667,-403 285,-397.3333 285,-391.6667 285,-391.6667 285,-380.3333 285,-380.3333 285,-374.6667 290.6667,-369 296.3333,-369"/>
</g>
<!-- read_addr&#45;&gt;read_addr -->
<g id="edge3" class="edge transition">
<title>read_addr&#45;&gt;read_addr</title>
<path fill="none" stroke="#000000" d="M360.0841,-388.4369C372.3101,-388.4119 382,-387.5996 382,-386 382,-384.8753 377.2094,-384.1398 370.1151,-383.7935"/>
<polygon fill="#000000" stroke="#000000" points="370.1619,-380.2938 360.0841,-383.5631 370.001,-387.2919 370.1619,-380.2938"/>
<text text-anchor="start" x="382" y="-389" font-family="Helvetica,sans-Serif" font-size="10.00" fill="#000000">count1 == clk_count1 * 4 &#45; 1 &#160;&#160;</text>
<text text-anchor="start" x="382" y="-377" font-family="Helvetica,sans-Serif" font-size="10.00" fill="#000000">bitcnt &lt;= 7 &#160;&#160;</text>
</g>
<!-- read_addr&#45;&gt;read_addr -->
<g id="edge4" class="edge transition">
<title>read_addr&#45;&gt;read_addr</title>
<path fill="none" stroke="#000000" d="M360.0783,-389.4991C417.8201,-392.1429 514.833,-390.9766 514.833,-386 514.833,-381.3053 428.4986,-380.0014 370.2431,-382.0883"/>
<polygon fill="#000000" stroke="#000000" points="369.9281,-378.5981 360.0783,-382.5009 370.212,-385.5923 369.9281,-378.5981"/>
<text text-anchor="start" x="514.833" y="-389" font-family="Helvetica,sans-Serif" font-size="10.00" fill="#000000">not (count1 == clk_count1 * 4 &#45; 1) &#160;&#160;</text>
<text text-anchor="start" x="514.833" y="-377" font-family="Helvetica,sans-Serif" font-size="10.00" fill="#000000">bitcnt &lt;= 7 &#160;&#160;</text>
</g>
<!-- send_ack1 -->
<g id="node4" class="node state regular">
<title>send_ack1</title>
<polygon fill="#ffffff" fill-opacity="0.003922" stroke="transparent" stroke-width="2" points="362,-322 282,-322 282,-286 362,-286 362,-322"/>
<text text-anchor="start" x="292.9876" y="-300.2" font-family="Helvetica,sans-Serif" font-size="12.00" fill="#000000">send_ack1</text>
<path fill="none" stroke="#000000" stroke-width="2" d="M294.3333,-287C294.3333,-287 349.6667,-287 349.6667,-287 355.3333,-287 361,-292.6667 361,-298.3333 361,-298.3333 361,-309.6667 361,-309.6667 361,-315.3333 355.3333,-321 349.6667,-321 349.6667,-321 294.3333,-321 294.3333,-321 288.6667,-321 283,-315.3333 283,-309.6667 283,-309.6667 283,-298.3333 283,-298.3333 283,-292.6667 288.6667,-287 294.3333,-287"/>
</g>
<!-- read_addr&#45;&gt;send_ack1 -->
<g id="edge5" class="edge transition">
<title>read_addr&#45;&gt;send_ack1</title>
<path fill="none" stroke="#000000" d="M322,-367.8015C322,-357.3976 322,-344.1215 322,-332.3768"/>
<polygon fill="#000000" stroke="#000000" points="325.5001,-332.1476 322,-322.1476 318.5001,-332.1476 325.5001,-332.1476"/>
<text text-anchor="start" x="322" y="-342" font-family="Helvetica,sans-Serif" font-size="10.00" fill="#000000">not (bitcnt &lt;= 7) &#160;&#160;</text>
</g>
<!-- send_ack1&#45;&gt;send_ack1 -->
<g id="edge8" class="edge transition">
<title>send_ack1&#45;&gt;send_ack1</title>
<path fill="none" stroke="#000000" d="M362.2514,-308.8676C374.4582,-308.7456 384,-307.123 384,-304 384,-301.8529 379.49,-300.415 372.7046,-299.6864"/>
<polygon fill="#000000" stroke="#000000" points="372.4226,-296.1666 362.2514,-299.1324 372.0521,-303.1568 372.4226,-296.1666"/>
<text text-anchor="start" x="384" y="-301" font-family="Helvetica,sans-Serif" font-size="10.00" fill="#000000">not (count1 == clk_count1 * 4 &#45; 1) &#160;&#160;</text>
</g>
<!-- send_data -->
<g id="node5" class="node state regular">
<title>send_data</title>
<polygon fill="#ffffff" fill-opacity="0.003922" stroke="transparent" stroke-width="2" points="94,-228 16,-228 16,-192 94,-192 94,-228"/>
<text text-anchor="start" x="26.9848" y="-206.2" font-family="Helvetica,sans-Serif" font-size="12.00" fill="#000000">send_data</text>
<path fill="none" stroke="#000000" stroke-width="2" d="M28.3333,-193C28.3333,-193 81.6667,-193 81.6667,-193 87.3333,-193 93,-198.6667 93,-204.3333 93,-204.3333 93,-215.6667 93,-215.6667 93,-221.3333 87.3333,-227 81.6667,-227 81.6667,-227 28.3333,-227 28.3333,-227 22.6667,-227 17,-221.3333 17,-215.6667 17,-215.6667 17,-204.3333 17,-204.3333 17,-198.6667 22.6667,-193 28.3333,-193"/>
</g>
<!-- send_ack1&#45;&gt;send_data -->
<g id="edge6" class="edge transition">
<title>send_ack1&#45;&gt;send_data</title>
<path fill="none" stroke="#000000" d="M281.7383,-289.8255C234.1107,-273.0577 154.8597,-245.1566 103.7895,-227.1768"/>
<polygon fill="#000000" stroke="#000000" points="104.8773,-223.8493 94.2824,-223.8298 102.5526,-230.452 104.8773,-223.8493"/>
<text text-anchor="start" x="221" y="-260" font-family="Helvetica,sans-Serif" font-size="10.00" fill="#000000">r_addr[0] == 1&#39;b1 &#160;&#160;</text>
<text text-anchor="start" x="221" y="-248" font-family="Helvetica,sans-Serif" font-size="10.00" fill="#000000">count1 == clk_count1 * 4 &#45; 1 &#160;&#160;</text>
</g>
<!-- read_data -->
<g id="node7" class="node state regular">
<title>read_data</title>
<polygon fill="#ffffff" fill-opacity="0.003922" stroke="transparent" stroke-width="2" points="516,-228 440,-228 440,-192 516,-192 516,-228"/>
<text text-anchor="start" x="450.9874" y="-206.2" font-family="Helvetica,sans-Serif" font-size="12.00" fill="#000000">read_data</text>
<path fill="none" stroke="#000000" stroke-width="2" d="M452.3333,-193C452.3333,-193 503.6667,-193 503.6667,-193 509.3333,-193 515,-198.6667 515,-204.3333 515,-204.3333 515,-215.6667 515,-215.6667 515,-221.3333 509.3333,-227 503.6667,-227 503.6667,-227 452.3333,-227 452.3333,-227 446.6667,-227 441,-221.3333 441,-215.6667 441,-215.6667 441,-204.3333 441,-204.3333 441,-198.6667 446.6667,-193 452.3333,-193"/>
</g>
<!-- send_ack1&#45;&gt;read_data -->
<g id="edge7" class="edge transition">
<title>send_ack1&#45;&gt;read_data</title>
<path fill="none" stroke="#000000" d="M352.0784,-285.8759C376.8969,-270.9211 412.2836,-249.5983 439.2276,-233.3629"/>
<polygon fill="#000000" stroke="#000000" points="441.2551,-236.2275 448.014,-228.0685 437.6423,-230.2318 441.2551,-236.2275"/>
<text text-anchor="start" x="419" y="-260" font-family="Helvetica,sans-Serif" font-size="10.00" fill="#000000">not (r_addr[0] == 1&#39;b1) &#160;&#160;</text>
<text text-anchor="start" x="419" y="-248" font-family="Helvetica,sans-Serif" font-size="10.00" fill="#000000">count1 == clk_count1 * 4 &#45; 1 &#160;&#160;</text>
</g>
<!-- send_data&#45;&gt;send_data -->
<g id="edge9" class="edge transition">
<title>send_data&#45;&gt;send_data</title>
<path fill="none" stroke="#000000" d="M94.0143,-212.4362C106.3043,-212.399 116,-211.5869 116,-210 116,-208.8842 111.2066,-208.1515 104.0883,-207.8018"/>
<polygon fill="#000000" stroke="#000000" points="104.0942,-204.3011 94.0143,-207.5638 103.9288,-211.2991 104.0942,-204.3011"/>
<text text-anchor="start" x="116" y="-213" font-family="Helvetica,sans-Serif" font-size="10.00" fill="#000000">count1 == clk_count1 * 4 &#45; 1 &#160;&#160;</text>
<text text-anchor="start" x="116" y="-201" font-family="Helvetica,sans-Serif" font-size="10.00" fill="#000000">bitcnt &lt;= 7 &#160;&#160;</text>
</g>
<!-- send_data&#45;&gt;send_data -->
<g id="edge10" class="edge transition">
<title>send_data&#45;&gt;send_data</title>
<path fill="none" stroke="#000000" d="M94.2467,-213.5393C152.4207,-216.1309 248.833,-214.9512 248.833,-210 248.833,-205.3293 163.0331,-204.0148 104.4753,-206.0566"/>
<polygon fill="#000000" stroke="#000000" points="104.1007,-202.5686 94.2467,-206.4607 104.3771,-209.5631 104.1007,-202.5686"/>
<text text-anchor="start" x="248.833" y="-213" font-family="Helvetica,sans-Serif" font-size="10.00" fill="#000000">not (count1 == clk_count1 * 4 &#45; 1) &#160;&#160;</text>
<text text-anchor="start" x="248.833" y="-201" font-family="Helvetica,sans-Serif" font-size="10.00" fill="#000000">bitcnt &lt;= 7 &#160;&#160;</text>
</g>
<!-- master_ack -->
<g id="node6" class="node state regular">
<title>master_ack</title>
<polygon fill="#ffffff" fill-opacity="0.003922" stroke="transparent" stroke-width="2" points="166,-146 82,-146 82,-110 166,-110 166,-146"/>
<text text-anchor="start" x="92.9962" y="-124.2" font-family="Helvetica,sans-Serif" font-size="12.00" fill="#000000">master_ack</text>
<path fill="none" stroke="#000000" stroke-width="2" d="M94.3333,-111C94.3333,-111 153.6667,-111 153.6667,-111 159.3333,-111 165,-116.6667 165,-122.3333 165,-122.3333 165,-133.6667 165,-133.6667 165,-139.3333 159.3333,-145 153.6667,-145 153.6667,-145 94.3333,-145 94.3333,-145 88.6667,-145 83,-139.3333 83,-133.6667 83,-133.6667 83,-122.3333 83,-122.3333 83,-116.6667 88.6667,-111 94.3333,-111"/>
</g>
<!-- send_data&#45;&gt;master_ack -->
<g id="edge11" class="edge transition">
<title>send_data&#45;&gt;master_ack</title>
<path fill="none" stroke="#000000" d="M70.3133,-191.8015C79.6932,-180.6545 91.8475,-166.2103 102.2187,-153.8851"/>
<polygon fill="#000000" stroke="#000000" points="104.969,-156.0526 108.7295,-146.1476 99.6129,-151.5457 104.969,-156.0526"/>
<text text-anchor="start" x="94" y="-166" font-family="Helvetica,sans-Serif" font-size="10.00" fill="#000000">not (bitcnt &lt;= 7) &#160;&#160;</text>
</g>
<!-- master_ack&#45;&gt;master_ack -->
<g id="edge14" class="edge transition">
<title>master_ack&#45;&gt;master_ack</title>
<path fill="none" stroke="#000000" d="M166.1623,-132.8604C178.4681,-132.6924 188,-131.0723 188,-128 188,-125.8398 183.2876,-124.3975 176.2119,-123.6732"/>
<polygon fill="#000000" stroke="#000000" points="176.3338,-120.1748 166.1623,-123.1396 175.9626,-127.165 176.3338,-120.1748"/>
<text text-anchor="start" x="188" y="-125" font-family="Helvetica,sans-Serif" font-size="10.00" fill="#000000">not (count1 == clk_count1 * 4 &#45; 1) &#160;&#160;</text>
</g>
<!-- detect_stop -->
<g id="node10" class="node state regular">
<title>detect_stop</title>
<polygon fill="#ffffff" fill-opacity="0.003922" stroke="transparent" stroke-width="2" points="432,-52 348,-52 348,-16 432,-16 432,-52"/>
<text text-anchor="start" x="358.9854" y="-30.2" font-family="Helvetica,sans-Serif" font-size="12.00" fill="#000000">detect_stop</text>
<path fill="none" stroke="#000000" stroke-width="2" d="M360.3333,-17C360.3333,-17 419.6667,-17 419.6667,-17 425.3333,-17 431,-22.6667 431,-28.3333 431,-28.3333 431,-39.6667 431,-39.6667 431,-45.3333 425.3333,-51 419.6667,-51 419.6667,-51 360.3333,-51 360.3333,-51 354.6667,-51 349,-45.3333 349,-39.6667 349,-39.6667 349,-28.3333 349,-28.3333 349,-22.6667 354.6667,-17 360.3333,-17"/>
</g>
<!-- master_ack&#45;&gt;detect_stop -->
<g id="edge12" class="edge transition">
<title>master_ack&#45;&gt;detect_stop</title>
<path fill="none" stroke="#000000" d="M124.3143,-109.7769C125.5742,-96.4672 129.5543,-79.0562 141.167,-69 155.7533,-56.3687 269.0213,-44.48 337.6096,-38.3403"/>
<polygon fill="#000000" stroke="#000000" points="338.1464,-41.8066 347.7999,-37.4408 337.5309,-34.8337 338.1464,-41.8066"/>
<text text-anchor="start" x="141" y="-84" font-family="Helvetica,sans-Serif" font-size="10.00" fill="#000000">r_ack == 1&#39;b1 &#160;&#160;</text>
<text text-anchor="start" x="141" y="-72" font-family="Helvetica,sans-Serif" font-size="10.00" fill="#000000">count1 == clk_count1 * 4 &#45; 1 &#160;&#160;</text>
</g>
<!-- master_ack&#45;&gt;detect_stop -->
<g id="edge13" class="edge transition">
<title>master_ack&#45;&gt;detect_stop</title>
<path fill="none" stroke="#000000" d="M166.0607,-124.0934C197.5279,-119.8205 240.8371,-111.0031 275,-93 288.9608,-85.643 287.7865,-77.3661 301.167,-69 312.5912,-61.8571 325.7161,-55.7217 338.3101,-50.6741"/>
<polygon fill="#000000" stroke="#000000" points="339.7211,-53.8814 347.8003,-47.0275 337.2103,-47.3472 339.7211,-53.8814"/>
<text text-anchor="start" x="301" y="-84" font-family="Helvetica,sans-Serif" font-size="10.00" fill="#000000">not (r_ack == 1&#39;b1) &#160;&#160;</text>
<text text-anchor="start" x="301" y="-72" font-family="Helvetica,sans-Serif" font-size="10.00" fill="#000000">count1 == clk_count1 * 4 &#45; 1 &#160;&#160;</text>
</g>
<!-- read_data&#45;&gt;read_data -->
<g id="edge15" class="edge transition">
<title>read_data&#45;&gt;read_data</title>
<path fill="none" stroke="#000000" d="M516.0841,-212.4369C528.3101,-212.4119 538,-211.5996 538,-210 538,-208.8753 533.2094,-208.1398 526.1151,-207.7935"/>
<polygon fill="#000000" stroke="#000000" points="526.1619,-204.2938 516.0841,-207.5631 526.001,-211.2919 526.1619,-204.2938"/>
<text text-anchor="start" x="538" y="-213" font-family="Helvetica,sans-Serif" font-size="10.00" fill="#000000">count1 == clk_count1 * 4 &#45; 1 &#160;&#160;</text>
<text text-anchor="start" x="538" y="-201" font-family="Helvetica,sans-Serif" font-size="10.00" fill="#000000">bitcnt &lt;= 7 &#160;&#160;</text>
</g>
<!-- read_data&#45;&gt;read_data -->
<g id="edge16" class="edge transition">
<title>read_data&#45;&gt;read_data</title>
<path fill="none" stroke="#000000" d="M516.0783,-213.4991C573.8201,-216.1429 670.833,-214.9766 670.833,-210 670.833,-205.3053 584.4986,-204.0014 526.2431,-206.0883"/>
<polygon fill="#000000" stroke="#000000" points="525.9281,-202.5981 516.0783,-206.5009 526.212,-209.5923 525.9281,-202.5981"/>
<text text-anchor="start" x="670.833" y="-213" font-family="Helvetica,sans-Serif" font-size="10.00" fill="#000000">not (count1 == clk_count1 * 4 &#45; 1) &#160;&#160;</text>
<text text-anchor="start" x="670.833" y="-201" font-family="Helvetica,sans-Serif" font-size="10.00" fill="#000000">bitcnt &lt;= 7 &#160;&#160;</text>
</g>
<!-- send_ack2 -->
<g id="node8" class="node state regular">
<title>send_ack2</title>
<polygon fill="#ffffff" fill-opacity="0.003922" stroke="transparent" stroke-width="2" points="518,-146 438,-146 438,-110 518,-110 518,-146"/>
<text text-anchor="start" x="448.9876" y="-124.2" font-family="Helvetica,sans-Serif" font-size="12.00" fill="#000000">send_ack2</text>
<path fill="none" stroke="#000000" stroke-width="2" d="M450.3333,-111C450.3333,-111 505.6667,-111 505.6667,-111 511.3333,-111 517,-116.6667 517,-122.3333 517,-122.3333 517,-133.6667 517,-133.6667 517,-139.3333 511.3333,-145 505.6667,-145 505.6667,-145 450.3333,-145 450.3333,-145 444.6667,-145 439,-139.3333 439,-133.6667 439,-133.6667 439,-122.3333 439,-122.3333 439,-116.6667 444.6667,-111 450.3333,-111"/>
</g>
<!-- read_data&#45;&gt;send_ack2 -->
<g id="edge17" class="edge transition">
<title>read_data&#45;&gt;send_ack2</title>
<path fill="none" stroke="#000000" d="M478,-191.8015C478,-181.3976 478,-168.1215 478,-156.3768"/>
<polygon fill="#000000" stroke="#000000" points="481.5001,-156.1476 478,-146.1476 474.5001,-156.1476 481.5001,-156.1476"/>
<text text-anchor="start" x="478" y="-166" font-family="Helvetica,sans-Serif" font-size="10.00" fill="#000000">not (bitcnt &lt;= 7) &#160;&#160;</text>
</g>
<!-- send_ack2&#45;&gt;send_ack2 -->
<g id="edge19" class="edge transition">
<title>send_ack2&#45;&gt;send_ack2</title>
<path fill="none" stroke="#000000" d="M518.2514,-132.8676C530.4582,-132.7456 540,-131.123 540,-128 540,-125.8529 535.49,-124.415 528.7046,-123.6864"/>
<polygon fill="#000000" stroke="#000000" points="528.4226,-120.1666 518.2514,-123.1324 528.0521,-127.1568 528.4226,-120.1666"/>
<text text-anchor="start" x="540" y="-125" font-family="Helvetica,sans-Serif" font-size="10.00" fill="#000000">not (count1 == clk_count1 * 4 &#45; 1) &#160;&#160;</text>
</g>
<!-- send_ack2&#45;&gt;detect_stop -->
<g id="edge18" class="edge transition">
<title>send_ack2&#45;&gt;detect_stop</title>
<path fill="none" stroke="#000000" d="M468.4319,-109.9913C461.3278,-97.623 450.8482,-81.2846 439,-69 435.4178,-65.2858 431.3954,-61.7028 427.2356,-58.3384"/>
<polygon fill="#000000" stroke="#000000" points="429.2185,-55.4487 419.1467,-52.1609 424.9698,-61.012 429.2185,-55.4487"/>
<text text-anchor="start" x="457" y="-78" font-family="Helvetica,sans-Serif" font-size="10.00" fill="#000000">count1 == clk_count1 * 4 &#45; 1 &#160;&#160;</text>
</g>
<!-- wait_p&#45;&gt;read_addr -->
<g id="edge20" class="edge transition">
<title>wait_p&#45;&gt;read_addr</title>
<path fill="none" stroke="#000000" d="M374.9086,-449.8015C365.6647,-438.6545 353.6866,-424.2103 343.4657,-411.8851"/>
<polygon fill="#000000" stroke="#000000" points="346.1268,-409.611 337.0492,-404.1476 340.7385,-414.0794 346.1268,-409.611"/>
<text text-anchor="start" x="360" y="-424" font-family="Helvetica,sans-Serif" font-size="10.00" fill="#000000">pulse == 2&#39;b11 &amp;&amp; count1 == 399 &#160;&#160;</text>
</g>
<!-- wait_p&#45;&gt;wait_p -->
<g id="edge21" class="edge transition">
<title>wait_p&#45;&gt;wait_p</title>
<path fill="none" stroke="#000000" d="M418.0183,-472.8247C429.888,-473.1883 440,-471.5801 440,-468 440,-465.5387 435.2205,-464.0094 428.3762,-463.4121"/>
<polygon fill="#000000" stroke="#000000" points="428.0957,-459.9049 418.0183,-463.1753 427.9356,-466.903 428.0957,-459.9049"/>
<text text-anchor="start" x="440" y="-465" font-family="Helvetica,sans-Serif" font-size="10.00" fill="#000000">not (pulse == 2&#39;b11 &amp;&amp; count1 == 399) &#160;&#160;</text>
</g>
<!-- detect_stop&#45;&gt;idle -->
<g id="edge22" class="edge transition">
<title>detect_stop&#45;&gt;idle</title>
<path fill="none" stroke="#000000" d="M432.3919,-36.0116C548.4902,-41.7997 863,-59.4668 863,-81 863,-183.5 863,-183.5 863,-183.5 863,-203.9843 862.6977,-211.1843 851,-228 806.139,-292.4887 707,-251.9423 707,-330.5 707,-509 707,-509 707,-509 707,-532.7265 637.484,-543.0955 592.1675,-547.3341"/>
<polygon fill="#000000" stroke="#000000" points="591.7202,-543.8598 582.0626,-548.2165 592.3291,-550.8333 591.7202,-543.8598"/>
<text text-anchor="start" x="728" y="-301" font-family="Helvetica,sans-Serif" font-size="10.00" fill="#000000">pulse == 2&#39;b11 &amp;&amp; count1 == 399 &#160;&#160;</text>
</g>
<!-- detect_stop&#45;&gt;detect_stop -->
<g id="edge23" class="edge transition">
<title>detect_stop&#45;&gt;detect_stop</title>
<path fill="none" stroke="#000000" d="M432.1623,-38.8604C444.4681,-38.6924 454,-37.0723 454,-34 454,-31.8398 449.2876,-30.3975 442.2119,-29.6732"/>
<polygon fill="#000000" stroke="#000000" points="442.3338,-26.1748 432.1623,-29.1396 441.9626,-33.165 442.3338,-26.1748"/>
<text text-anchor="start" x="454" y="-31" font-family="Helvetica,sans-Serif" font-size="10.00" fill="#000000">not (pulse == 2&#39;b11 &amp;&amp; count1 == 399) &#160;&#160;</text>
</g>
</g>
</svg>
